<svg xmlns="http://www.w3.org/2000/svg" viewBox="0 0 960 720" role="img" aria-labelledby="t d"><title id="t">American football field route</title><desc id="d">A stylised football field in Dalarna red with routes moving toward the end zone.</desc><defs><linearGradient id="g" x1="0" y1="1" x2="1" y2="0"><stop stop-color="#172536"/><stop offset="1" stop-color="#0d131c"/></linearGradient><radialGradient id="gl"><stop stop-color="#f0b84b" stop-opacity=".85"/><stop offset="1" stop-color="#f0b84b" stop-opacity="0"/></radialGradient></defs><rect width="960" height="720" rx="48" fill="url(#g)"/><g opacity=".18" stroke="#fff"><path d="M90 90v540M180 90v540M270 90v540M360 90v540M450 90v540M540 90v540M630 90v540M720 90v540M810 90v540"/><path d="M80 90h800M80 180h800M80 270h800M80 360h800M80 450h800M80 540h800M80 630h800"/></g><path d="M145 580C245 545 255 475 350 455s75-120 175-115 115-120 220-180" fill="none" stroke="#f7eee3" stroke-width="7" stroke-linecap="round" stroke-dasharray="18 16"/><path d="M145 580C265 600 325 555 405 565s165-70 185-145 75-175 155-260" fill="none" stroke="#b72d34" stroke-width="10" stroke-linecap="round"/><circle cx="745" cy="160" r="120" fill="url(#gl)"/><g fill="#111923" stroke="#f7eee3" stroke-width="5"><circle cx="145" cy="580" r="17"/><circle cx="350" cy="455" r="14"/><circle cx="525" cy="340" r="14"/></g><circle cx="745" cy="160" r="22" fill="#f0b84b" stroke="#fff2cf" stroke-width="6"/><g fill="#f7eee3" font-family="Arial,sans-serif" font-weight="800" letter-spacing="5"><text x="96" y="650" font-size="30">FIRST PRACTICE</text><text x="678" y="95" font-size="30">YOUR ROLE</text></g><path d="M390 110h180v90c0 58-35 100-90 120-55-20-90-62-90-120v-90Z" fill="#b72d34" opacity=".9"/><path d="M430 155h100M440 180h80M452 205h56" stroke="#f7eee3" stroke-width="9" stroke-linecap="round"/><path d="M480 130v115" stroke="#f0b84b" stroke-width="5" stroke-dasharray="6 8"/></svg>